<svg width="16" height="16" viewBox="0 0 16 16" fill="none" xmlns="http://www.w3.org/2000/svg">
<path fill-rule="evenodd" clip-rule="evenodd" d="M7.11765 5.35295L2.2647 0.500003C1.77739 0.0126929 0.987307 0.0126926 0.499997 0.500003C0.0126868 0.987313 0.0126871 1.7774 0.499997 2.26471L5.35294 7.11765C5.84025 7.60496 5.84025 8.39505 5.35294 8.88236L0.499997 13.7353C0.0126868 14.2226 0.0126875 15.0127 0.499997 15.5C0.987308 15.9873 1.77739 15.9873 2.2647 15.5L7.11765 10.6471C7.60496 10.1598 8.39504 10.1598 8.88235 10.6471L13.7353 15.5C14.2226 15.9873 15.0127 15.9873 15.5 15.5C15.9873 15.0127 15.9873 14.2226 15.5 13.7353L10.6471 8.88236C10.1597 8.39505 10.1597 7.60496 10.6471 7.11765L15.5 2.26471C15.9873 1.7774 15.9873 0.987313 15.5 0.500003C15.0127 0.0126926 14.2226 0.0126929 13.7353 0.500003L8.88235 5.35295C8.39504 5.84026 7.60496 5.84026 7.11765 5.35295Z" fill="#737373"/>
</svg>
